<svg id="visual" viewBox="0 0 900 600" width="900" height="600" xmlns="http://www.w3.org/2000/svg" xmlns:xlink="http://www.w3.org/1999/xlink" version="1.1"><rect x="0" y="0" width="900" height="600" fill="#590D22"></rect><defs><linearGradient id="grad1_0" x1="33.3%" y1="0%" x2="100%" y2="100%"><stop offset="20%" stop-color="#611d5c" stop-opacity="1"></stop><stop offset="80%" stop-color="#611d5c" stop-opacity="1"></stop></linearGradient></defs><defs><linearGradient id="grad1_1" x1="33.3%" y1="0%" x2="100%" y2="100%"><stop offset="20%" stop-color="#611d5c" stop-opacity="1"></stop><stop offset="80%" stop-color="#641247" stop-opacity="1"></stop></linearGradient></defs><defs><linearGradient id="grad1_2" x1="33.3%" y1="0%" x2="100%" y2="100%"><stop offset="20%" stop-color="#600d33" stop-opacity="1"></stop><stop offset="80%" stop-color="#641247" stop-opacity="1"></stop></linearGradient></defs><defs><linearGradient id="grad1_3" x1="33.3%" y1="0%" x2="100%" y2="100%"><stop offset="20%" stop-color="#600d33" stop-opacity="1"></stop><stop offset="80%" stop-color="#590d22" stop-opacity="1"></stop></linearGradient></defs><defs><linearGradient id="grad2_0" x1="0%" y1="0%" x2="66.7%" y2="100%"><stop offset="20%" stop-color="#611d5c" stop-opacity="1"></stop><stop offset="80%" stop-color="#611d5c" stop-opacity="1"></stop></linearGradient></defs><defs><linearGradient id="grad2_1" x1="0%" y1="0%" x2="66.7%" y2="100%"><stop offset="20%" stop-color="#641247" stop-opacity="1"></stop><stop offset="80%" stop-color="#611d5c" stop-opacity="1"></stop></linearGradient></defs><defs><linearGradient id="grad2_2" x1="0%" y1="0%" x2="66.7%" y2="100%"><stop offset="20%" stop-color="#641247" stop-opacity="1"></stop><stop offset="80%" stop-color="#600d33" stop-opacity="1"></stop></linearGradient></defs><defs><linearGradient id="grad2_3" x1="0%" y1="0%" x2="66.7%" y2="100%"><stop offset="20%" stop-color="#590d22" stop-opacity="1"></stop><stop offset="80%" stop-color="#600d33" stop-opacity="1"></stop></linearGradient></defs><g transform="translate(900, 0)"><path d="M0 486.7C-71.5 487.5 -143 488.3 -186.3 449.7C-229.6 411.1 -244.7 333.1 -285.7 285.7C-326.7 238.2 -393.6 221.2 -431.5 178.7C-469.3 136.2 -478 68.1 -486.7 0L0 0Z" fill="#5d0c2a"></path><path d="M0 365.1C-53.6 365.6 -107.2 366.2 -139.7 337.3C-172.2 308.3 -183.5 249.9 -214.3 214.3C-245 178.7 -295.2 165.9 -323.6 134C-352 102.1 -358.5 51.1 -365.1 0L0 0Z" fill="#630f3d"></path><path d="M0 243.4C-35.7 243.8 -71.5 244.1 -93.1 224.8C-114.8 205.6 -122.3 166.6 -142.8 142.8C-163.3 119.1 -196.8 110.6 -215.7 89.4C-234.6 68.1 -239 34 -243.4 0L0 0Z" fill="#631751"></path><path d="M0 121.7C-17.9 121.9 -35.7 122.1 -46.6 112.4C-57.4 102.8 -61.2 83.3 -71.4 71.4C-81.7 59.6 -98.4 55.3 -107.9 44.7C-117.3 34 -119.5 17 -121.7 0L0 0Z" fill="#611d5c"></path></g><g transform="translate(0, 600)"><path d="M0 -486.7C57.7 -470.1 115.4 -453.4 179.9 -434.2C244.3 -415.1 315.4 -393.5 344.2 -344.2C372.9 -294.8 359.3 -217.7 376 -155.8C392.7 -93.8 439.7 -46.9 486.7 0L0 0Z" fill="#5d0c2a"></path><path d="M0 -365.1C43.3 -352.5 86.6 -340 134.9 -325.7C183.2 -311.3 236.6 -295.1 258.1 -258.1C279.7 -221.1 269.5 -163.3 282 -116.8C294.5 -70.3 329.8 -35.2 365.1 0L0 0Z" fill="#630f3d"></path><path d="M0 -243.4C28.9 -235 57.7 -226.7 89.9 -217.1C122.1 -207.5 157.7 -196.8 172.1 -172.1C186.5 -147.4 179.7 -108.9 188 -77.9C196.4 -46.9 219.9 -23.4 243.4 0L0 0Z" fill="#631751"></path><path d="M0 -121.7C14.4 -117.5 28.9 -113.3 45 -108.6C61.1 -103.8 78.9 -98.4 86 -86C93.2 -73.7 89.8 -54.4 94 -38.9C98.2 -23.4 109.9 -11.7 121.7 0L0 0Z" fill="#611d5c"></path></g></svg>